<?xml version="1.0" encoding="utf-8"?><svg version="1.1" id="Layer_1" xmlns="http://www.w3.org/2000/svg" xmlns:xlink="http://www.w3.org/1999/xlink" x="0px" y="0px" viewBox="0 0 122.88 80.4" style="enable-background:new 0 0 122.88 80.4" xml:space="preserve"><style type="text/css"><![CDATA[
	.st0{fill-rule:evenodd;clip-rule:evenodd;}
	.st1{fill-rule:evenodd;clip-rule:evenodd;fill:#FFFFFF;}
]]></style><g><path class="st0" d="M24.52,0h73.84c1.4,0,2.69,0.58,3.62,1.51l0,0l0.01,0.01L102,1.53L102,1.53c0.93,0.94,1.51,2.22,1.51,3.62 v10.49h11.48c2.18,0,4.15,0.89,5.57,2.32c1.43,1.43,2.32,3.41,2.32,5.58v33.32c0,2.16-0.89,4.14-2.32,5.57 c-0.11,0.11-0.22,0.21-0.34,0.3c-1.4,1.25-3.24,2.02-5.23,2.02h-11.48v10.49c0,1.42-0.58,2.71-1.51,3.64 c-0.93,0.93-2.22,1.51-3.63,1.51H24.52c-1.4,0-2.69-0.57-3.63-1.51l-0.01-0.01l-0.01-0.01l-0.01-0.01 c-0.93-0.94-1.51-2.22-1.51-3.62V64.75H7.89c-2.16,0-4.14-0.89-5.58-2.32C0.89,61.01,0,59.04,0,56.86V23.54 c0-2.18,0.89-4.15,2.31-5.58c0.11-0.11,0.22-0.21,0.34-0.31c1.4-1.25,3.23-2.01,5.24-2.01h11.47V5.14c0.01-1.42,0.59-2.7,1.52-3.64 C20.94,1.45,21,1.4,21.06,1.35C21.98,0.51,23.19,0,24.52,0L24.52,0L24.52,0z M98.86,64.75H24.03v10.48c0,0.14,0.05,0.26,0.14,0.35 l0,0l0.01,0.01c0.09,0.09,0.21,0.14,0.35,0.14h73.84c0.13,0,0.25-0.05,0.35-0.15c0.09-0.09,0.15-0.21,0.15-0.35V64.75L98.86,64.75z"/><path class="st1" d="M7.89,19.92h107.09c1.99,0,3.62,1.65,3.62,3.62v33.32c0,1.97-1.65,3.62-3.62,3.62H7.89 c-1.97,0-3.62-1.63-3.62-3.62V23.54C4.27,21.54,5.9,19.92,7.89,19.92L7.89,19.92z"/><path class="st1" d="M24.12,64.75H98.8c0.05,0,0.09,0.04,0.09,0.09v10.39c0,0.27-0.22,0.49-0.49,0.49H24.52 c-0.27,0-0.49-0.22-0.49-0.49V64.84C24.03,64.79,24.07,64.75,24.12,64.75L24.12,64.75z"/><path class="st1" d="M30.24,6.61c1.83,0,3.32,1.49,3.32,3.32s-1.49,3.32-3.32,3.32c-1.83,0-3.31-1.49-3.31-3.32 S28.41,6.61,30.24,6.61L30.24,6.61z"/><path class="st1" d="M41.96,6.61c1.83,0,3.32,1.49,3.32,3.32s-1.49,3.32-3.32,3.32c-1.83,0-3.31-1.49-3.31-3.32 S40.13,6.61,41.96,6.61L41.96,6.61z"/><path class="st1" d="M53.69,6.61C55.52,6.61,57,8.1,57,9.93s-1.49,3.32-3.32,3.32s-3.32-1.49-3.32-3.32S51.86,6.61,53.69,6.61 L53.69,6.61z"/><path d="M9.88,28.71h5.73v7.58c0.78-0.81,1.55-1.39,2.32-1.74c0.76-0.35,1.67-0.52,2.72-0.52c1.55,0,2.78,0.48,3.67,1.42 c0.89,0.95,1.34,2.4,1.34,4.36v9.49h-5.75V41.1c0-0.94-0.17-1.6-0.52-1.99c-0.35-0.39-0.83-0.58-1.45-0.58 c-0.69,0-1.25,0.26-1.67,0.79c-0.43,0.53-0.64,1.47-0.64,2.83v7.17H9.88V28.71L9.88,28.71z M35.22,28.71v5.67h3.14v4.2h-3.14v5.28 c0,0.63,0.06,1.06,0.18,1.26c0.18,0.31,0.52,0.47,0.99,0.47c0.42,0,1.01-0.12,1.77-0.37l0.42,3.96c-1.41,0.31-2.73,0.47-3.96,0.47 c-1.42,0-2.48-0.19-3.15-0.55c-0.67-0.36-1.18-0.92-1.5-1.66c-0.32-0.74-0.48-1.95-0.48-3.62v-5.25h-2.1v-4.2h2.1v-2.74 L35.22,28.71L35.22,28.71z M47.99,28.71v5.67h3.14v4.2h-3.14v5.28c0,0.63,0.06,1.06,0.18,1.26c0.18,0.31,0.52,0.47,0.99,0.47 c0.42,0,1.01-0.12,1.77-0.37l0.42,3.96c-1.41,0.31-2.73,0.47-3.96,0.47c-1.42,0-2.48-0.19-3.15-0.55c-0.67-0.36-1.18-0.92-1.5-1.66 c-0.32-0.74-0.48-1.95-0.48-3.62v-5.25h-2.1v-4.2h2.1v-2.74L47.99,28.71L47.99,28.71z M53.32,54.98v-20.6h5.36v2.2 c0.74-0.93,1.43-1.56,2.04-1.88c0.83-0.43,1.75-0.66,2.77-0.66c1.99,0,3.54,0.77,4.63,2.29c1.09,1.52,1.64,3.42,1.64,5.67 c0,2.49-0.6,4.39-1.79,5.7c-1.18,1.3-2.69,1.96-4.51,1.96c-0.88,0-1.69-0.15-2.41-0.45c-0.72-0.29-1.38-0.74-1.95-1.33v7.1H53.32 L53.32,54.98z M59.06,41.89c0,1.19,0.25,2.07,0.74,2.64c0.49,0.57,1.12,0.86,1.88,0.86c0.66,0,1.22-0.28,1.67-0.83 c0.44-0.54,0.67-1.48,0.67-2.8c0-1.22-0.24-2.12-0.7-2.68c-0.46-0.57-1.04-0.85-1.71-0.85c-0.73,0-1.34,0.29-1.82,0.86 C59.31,39.67,59.06,40.6,59.06,41.89L59.06,41.89z M71.05,45.17l5.67-0.52c0.23,0.67,0.56,1.15,0.98,1.44s0.98,0.43,1.69,0.43 c0.77,0,1.37-0.18,1.79-0.49c0.32-0.24,0.49-0.55,0.49-0.91c0-0.41-0.22-0.74-0.65-0.96c-0.3-0.15-1.13-0.36-2.46-0.59 c-1.98-0.34-3.37-0.68-4.14-0.96c-0.76-0.29-1.43-0.8-1.95-1.49c-0.52-0.7-0.79-1.51-0.79-2.41c0-0.98,0.29-1.84,0.85-2.54 c0.56-0.71,1.36-1.25,2.36-1.6c1-0.35,2.35-0.53,4.03-0.53c1.78,0,3.1,0.14,3.93,0.41c0.84,0.27,1.56,0.7,2.12,1.27 c0.56,0.57,1.04,1.35,1.41,2.33l-5.41,0.52c-0.14-0.47-0.38-0.83-0.7-1.05c-0.44-0.29-0.99-0.45-1.63-0.45 c-0.64,0-1.12,0.12-1.4,0.35s-0.44,0.51-0.44,0.83c0,0.37,0.2,0.65,0.56,0.83c0.36,0.18,1.19,0.37,2.44,0.51 c1.9,0.21,3.32,0.52,4.24,0.9c0.92,0.38,1.64,0.94,2.12,1.65c0.49,0.71,0.74,1.5,0.74,2.35c0,0.86-0.27,1.71-0.78,2.52 c-0.51,0.81-1.35,1.47-2.46,1.95s-2.64,0.72-4.57,0.72c-2.72,0-4.67-0.4-5.82-1.17C72.13,47.71,71.38,46.6,71.05,45.17L71.05,45.17 z M89.1,34.38h6.1v5.73h-6.1V34.38L89.1,34.38z M89.1,43.59h6.1v5.72h-6.1V43.59L89.1,43.59z M102.12,28.37h2.89l-5.19,21.29h-2.89 L102.12,28.37L102.12,28.37z M110.11,28.37H113l-5.19,21.29h-2.89L110.11,28.37L110.11,28.37z"/></g></svg>