<?xml version="1.0" encoding="utf-8"?>
<svg xmlns="http://www.w3.org/2000/svg" xmlns:xlink="http://www.w3.org/1999/xlink" style="margin: auto; background: none; display: block; shape-rendering: auto;" width="200px" height="200px" viewBox="0 0 100 100" preserveAspectRatio="xMidYMid">
<g transform="rotate(0 50 50)">
  <rect x="47" y="14" rx="3" ry="5.76" width="6" height="24" fill="#456caa">
    <animate attributeName="opacity" values="1;0" keyTimes="0;1" dur="0.5555555555555556s" begin="-0.4761904761904762s" repeatCount="indefinite"></animate>
  </rect>
</g><g transform="rotate(51.42857142857143 50 50)">
  <rect x="47" y="14" rx="3" ry="5.76" width="6" height="24" fill="#456caa">
    <animate attributeName="opacity" values="1;0" keyTimes="0;1" dur="0.5555555555555556s" begin="-0.39682539682539686s" repeatCount="indefinite"></animate>
  </rect>
</g><g transform="rotate(102.85714285714286 50 50)">
  <rect x="47" y="14" rx="3" ry="5.76" width="6" height="24" fill="#456caa">
    <animate attributeName="opacity" values="1;0" keyTimes="0;1" dur="0.5555555555555556s" begin="-0.31746031746031744s" repeatCount="indefinite"></animate>
  </rect>
</g><g transform="rotate(154.28571428571428 50 50)">
  <rect x="47" y="14" rx="3" ry="5.76" width="6" height="24" fill="#456caa">
    <animate attributeName="opacity" values="1;0" keyTimes="0;1" dur="0.5555555555555556s" begin="-0.2380952380952381s" repeatCount="indefinite"></animate>
  </rect>
</g><g transform="rotate(205.71428571428572 50 50)">
  <rect x="47" y="14" rx="3" ry="5.76" width="6" height="24" fill="#456caa">
    <animate attributeName="opacity" values="1;0" keyTimes="0;1" dur="0.5555555555555556s" begin="-0.15873015873015872s" repeatCount="indefinite"></animate>
  </rect>
</g><g transform="rotate(257.14285714285717 50 50)">
  <rect x="47" y="14" rx="3" ry="5.76" width="6" height="24" fill="#456caa">
    <animate attributeName="opacity" values="1;0" keyTimes="0;1" dur="0.5555555555555556s" begin="-0.07936507936507936s" repeatCount="indefinite"></animate>
  </rect>
</g><g transform="rotate(308.57142857142856 50 50)">
  <rect x="47" y="14" rx="3" ry="5.76" width="6" height="24" fill="#456caa">
    <animate attributeName="opacity" values="1;0" keyTimes="0;1" dur="0.5555555555555556s" begin="0s" repeatCount="indefinite"></animate>
  </rect>
</g>
<!-- [ldio] generated by https://loading.io/ --></svg>